<?xml version="1.0" standalone="no"?><!-- Generator: Gravit.io --><svg xmlns="http://www.w3.org/2000/svg" xmlns:xlink="http://www.w3.org/1999/xlink" style="isolation:isolate" viewBox="2532.627 856.061 384 512" width="384" height="512"><g><path d=" M 2915.027 995.394 C 2914.094 991.527 2912.361 988.727 2910.361 986.327 L 2798.761 864.061 C 2796.227 861.261 2793.294 859.927 2789.961 858.194 C 2786.094 856.194 2781.827 856.061 2777.427 856.061 L 2564.227 856.061 C 2547.694 856.061 2532.627 868.861 2532.627 886.594 L 2532.627 1333.527 C 2532.627 1351.394 2547.694 1368.061 2564.227 1368.061 L 2888.361 1368.061 C 2904.894 1368.061 2916.627 1351.394 2916.627 1333.527 L 2916.627 1008.061 C 2916.627 1003.261 2916.094 999.794 2915.027 995.394 Z  M 2789.961 918.194 L 2867.294 1002.861 L 2789.961 1002.861 L 2789.961 918.194 Z  M 2575.294 1325.527 L 2575.294 898.861 L 2747.294 898.861 L 2747.294 1007.794 C 2747.294 1027.527 2765.161 1045.527 2784.761 1045.527 L 2873.961 1045.527 L 2873.961 1325.527 L 2575.294 1325.527 Z " fill="rgb(0,0,0)"/><g><path d=" M 2612.627 1305.914 L 2836.627 1305.914 L 2836.627 1177.914 L 2813.127 1154.414 C 2808.427 1149.714 2800.827 1149.714 2796.127 1154.414 L 2708.627 1241.914 L 2669.127 1202.414 C 2664.427 1197.714 2656.827 1197.714 2652.127 1202.414 L 2612.627 1241.914 L 2612.627 1305.914 Z  M 2660.627 1065.914 C 2634.127 1065.914 2612.627 1087.414 2612.627 1113.914 C 2612.627 1140.414 2634.127 1161.914 2660.627 1161.914 C 2687.127 1161.914 2708.627 1140.414 2708.627 1113.914 C 2708.627 1087.414 2687.127 1065.914 2660.627 1065.914 Z " fill="rgb(0,0,0)"/></g></g></svg>