<?xml version="1.0" standalone="no"?><!-- Generator: Gravit.io --><svg xmlns="http://www.w3.org/2000/svg" xmlns:xlink="http://www.w3.org/1999/xlink" style="isolation:isolate" viewBox="414.045 856.061 384 512" width="384" height="512"><path d=" M 796.445 995.394 C 795.512 991.527 793.779 988.727 791.779 986.327 L 680.179 864.061 C 677.645 861.261 674.712 859.927 671.379 858.194 C 667.512 856.194 663.245 856.061 658.845 856.061 L 445.645 856.061 C 429.112 856.061 414.045 868.861 414.045 886.594 L 414.045 1333.527 C 414.045 1351.394 429.112 1368.061 445.645 1368.061 L 769.779 1368.061 C 786.312 1368.061 798.045 1351.394 798.045 1333.527 L 798.045 1008.061 C 798.045 1003.261 797.512 999.794 796.445 995.394 Z  M 671.379 918.194 L 748.712 1002.861 L 671.379 1002.861 L 671.379 918.194 Z  M 456.712 1325.527 L 456.712 898.861 L 628.712 898.861 L 628.712 1007.794 C 628.712 1027.527 646.579 1045.527 666.179 1045.527 L 755.379 1045.527 L 755.379 1325.527 L 456.712 1325.527 Z " fill="rgb(0,0,0)"/></svg>