<?xml version="1.0" standalone="no"?><!-- Generator: Gravit.io --><svg xmlns="http://www.w3.org/2000/svg" xmlns:xlink="http://www.w3.org/1999/xlink" style="isolation:isolate" viewBox="2002.982 856.061 384 512" width="384" height="512"><g><path d=" M 2385.382 995.394 C 2384.448 991.527 2382.715 988.727 2380.715 986.327 L 2269.115 864.061 C 2266.582 861.261 2263.648 859.927 2260.315 858.194 C 2256.448 856.194 2252.182 856.061 2247.782 856.061 L 2034.582 856.061 C 2018.048 856.061 2002.982 868.861 2002.982 886.594 L 2002.982 1333.527 C 2002.982 1351.394 2018.048 1368.061 2034.582 1368.061 L 2358.715 1368.061 C 2375.249 1368.061 2386.982 1351.394 2386.982 1333.527 L 2386.982 1008.061 C 2386.982 1003.261 2386.448 999.794 2385.382 995.394 Z  M 2260.315 918.194 L 2337.648 1002.861 L 2260.315 1002.861 L 2260.315 918.194 Z  M 2045.648 1325.527 L 2045.648 898.861 L 2217.648 898.861 L 2217.648 1007.794 C 2217.648 1027.527 2235.515 1045.527 2255.115 1045.527 L 2344.315 1045.527 L 2344.315 1325.527 L 2045.648 1325.527 Z " fill="rgb(0,0,0)"/><path d=" M 2270.465 1103.888 C 2264.765 1103.888 2259.865 1107.888 2258.765 1113.388 C 2238.165 1211.088 2238.365 1208.788 2237.765 1216.888 C 2237.565 1215.688 2237.365 1214.288 2237.065 1212.588 C 2236.265 1207.488 2237.365 1212.788 2213.465 1113.088 C 2212.165 1107.688 2207.365 1103.888 2201.765 1103.888 L 2188.465 1103.888 C 2182.965 1103.888 2178.165 1107.688 2176.765 1112.988 C 2152.365 1211.988 2152.765 1209.188 2151.965 1216.688 C 2151.865 1215.588 2151.765 1214.188 2151.465 1212.488 C 2150.765 1207.288 2137.365 1139.188 2132.365 1113.488 C 2131.265 1107.888 2126.365 1103.788 2120.565 1103.788 L 2103.765 1103.788 C 2095.965 1103.788 2090.265 1111.088 2092.065 1118.588 C 2100.065 1151.188 2118.765 1228.088 2125.265 1254.588 C 2126.565 1259.988 2131.365 1263.688 2136.965 1263.688 L 2162.165 1263.688 C 2167.665 1263.688 2172.465 1259.988 2173.765 1254.588 L 2191.665 1183.188 C 2193.165 1176.988 2194.165 1171.188 2194.665 1165.888 L 2197.565 1183.188 C 2197.665 1183.588 2210.165 1233.688 2215.465 1254.588 C 2216.765 1259.888 2221.565 1263.688 2227.065 1263.688 L 2251.765 1263.688 C 2257.265 1263.688 2262.065 1259.988 2263.365 1254.588 C 2284.165 1172.688 2293.565 1135.588 2297.865 1118.588 C 2299.765 1110.988 2294.065 1103.688 2286.265 1103.688 L 2270.465 1103.688 L 2270.465 1103.888 Z " fill="rgb(0,0,0)"/></g></svg>