<?xml version="1.0" standalone="no"?><!-- Generator: Gravit.io --><svg xmlns="http://www.w3.org/2000/svg" xmlns:xlink="http://www.w3.org/1999/xlink" style="isolation:isolate" viewBox="1473.336 856.061 384 512" width="384" height="512"><g><path d=" M 1855.736 995.394 C 1854.803 991.527 1853.07 988.727 1851.07 986.327 L 1739.47 864.061 C 1736.936 861.261 1734.003 859.927 1730.67 858.194 C 1726.803 856.194 1722.536 856.061 1718.136 856.061 L 1504.936 856.061 C 1488.403 856.061 1473.336 868.861 1473.336 886.594 L 1473.336 1333.527 C 1473.336 1351.394 1488.403 1368.061 1504.936 1368.061 L 1829.07 1368.061 C 1845.603 1368.061 1857.336 1351.394 1857.336 1333.527 L 1857.336 1008.061 C 1857.336 1003.261 1856.803 999.794 1855.736 995.394 Z  M 1730.67 918.194 L 1808.003 1002.861 L 1730.67 1002.861 L 1730.67 918.194 Z  M 1516.003 1325.527 L 1516.003 898.861 L 1688.003 898.861 L 1688.003 1007.794 C 1688.003 1027.527 1705.87 1045.527 1725.47 1045.527 L 1814.67 1045.527 L 1814.67 1325.527 L 1516.003 1325.527 Z " fill="rgb(0,0,0)"/><path d=" M 1733.357 1086.248 L 1704.557 1086.248 C 1700.157 1086.248 1696.157 1088.648 1694.057 1092.548 C 1676.057 1125.648 1671.857 1134.948 1665.457 1150.248 C 1651.557 1121.148 1658.557 1132.948 1636.857 1092.548 C 1634.757 1088.648 1630.657 1086.248 1626.257 1086.248 L 1597.357 1086.248 C 1588.057 1086.248 1582.357 1096.248 1586.957 1104.248 L 1633.257 1182.248 L 1586.957 1260.248 C 1582.257 1268.248 1588.057 1278.248 1597.357 1278.248 L 1626.257 1278.248 C 1630.657 1278.248 1634.657 1275.848 1636.757 1271.948 C 1658.457 1231.948 1659.757 1226.948 1665.357 1214.248 C 1680.257 1244.448 1671.257 1230.148 1693.957 1271.948 C 1696.057 1275.848 1700.157 1278.248 1704.557 1278.248 L 1733.357 1278.248 C 1742.657 1278.248 1748.357 1268.248 1743.757 1260.248 L 1697.357 1182.248 C 1698.057 1181.148 1727.657 1131.748 1743.657 1104.248 C 1748.357 1096.248 1742.557 1086.248 1733.357 1086.248 Z " fill="rgb(0,0,0)"/></g></svg>